<svg width="25" height="24" viewBox="0 0 25 24" fill="none" xmlns="http://www.w3.org/2000/svg">
<path d="M2.5 9.75C2.09 9.75 1.75 9.41 1.75 9V6.5C1.75 3.6 4.11 1.25 7 1.25H9.5C9.91 1.25 10.25 1.59 10.25 2C10.25 2.41 9.91 2.75 9.5 2.75H7C4.93 2.75 3.25 4.43 3.25 6.5V9C3.25 9.41 2.91 9.75 2.5 9.75Z" fill="white"/>
<path d="M22.5 9.75C22.09 9.75 21.75 9.41 21.75 9V6.5C21.75 4.43 20.07 2.75 18 2.75H15.5C15.09 2.75 14.75 2.41 14.75 2C14.75 1.59 15.09 1.25 15.5 1.25H18C20.89 1.25 23.25 3.6 23.25 6.5V9C23.25 9.41 22.91 9.75 22.5 9.75Z" fill="white"/>
<path d="M18 22.75H16.5C16.09 22.75 15.75 22.41 15.75 22C15.75 21.59 16.09 21.25 16.5 21.25H18C20.07 21.25 21.75 19.57 21.75 17.5V16C21.75 15.59 22.09 15.25 22.5 15.25C22.91 15.25 23.25 15.59 23.25 16V17.5C23.25 20.4 20.89 22.75 18 22.75Z" fill="white"/>
<path d="M9.5 22.75H7C4.11 22.75 1.75 20.4 1.75 17.5V15C1.75 14.59 2.09 14.25 2.5 14.25C2.91 14.25 3.25 14.59 3.25 15V17.5C3.25 19.57 4.93 21.25 7 21.25H9.5C9.91 21.25 10.25 21.59 10.25 22C10.25 22.41 9.91 22.75 9.5 22.75Z" fill="white"/>
<path d="M14.5 18.25H10.5C8.08 18.25 6.75 16.92 6.75 14.5V9.5C6.75 7.08 8.08 5.75 10.5 5.75H14.5C16.92 5.75 18.25 7.08 18.25 9.5V14.5C18.25 16.92 16.92 18.25 14.5 18.25ZM10.5 7.25C8.92 7.25 8.25 7.92 8.25 9.5V14.5C8.25 16.08 8.92 16.75 10.5 16.75H14.5C16.08 16.75 16.75 16.08 16.75 14.5V9.5C16.75 7.92 16.08 7.25 14.5 7.25H10.5Z" fill="white"/>
<path d="M19.5 12.75H5.5C5.09 12.75 4.75 12.41 4.75 12C4.75 11.59 5.09 11.25 5.5 11.25H19.5C19.91 11.25 20.25 11.59 20.25 12C20.25 12.41 19.91 12.75 19.5 12.75Z" fill="white"/>
</svg>
