<svg width="21" height="20" viewBox="0 0 21 20" fill="none" xmlns="http://www.w3.org/2000/svg">
<path d="M5.11667 16.2666C4.60834 16.2666 4.13334 16.0916 3.79167 15.7666C3.35834 15.3583 3.15 14.7416 3.225 14.075L3.53334 11.375C3.59167 10.8666 3.9 10.1916 4.25834 9.82496L11.1 2.58329C12.8083 0.774959 14.5917 0.72496 16.4 2.43329C18.2083 4.14163 18.2583 5.92496 16.55 7.73329L9.70834 14.975C9.35834 15.35 8.70834 15.7 8.2 15.7833L5.51667 16.2416C5.375 16.25 5.25 16.2666 5.11667 16.2666ZM13.775 2.42496C13.1333 2.42496 12.575 2.82496 12.0083 3.42496L5.16667 10.675C5 10.85 4.80834 11.2666 4.775 11.5083L4.46667 14.2083C4.43334 14.4833 4.5 14.7083 4.65 14.85C4.8 14.9916 5.025 15.0416 5.3 15L7.98334 14.5416C8.225 14.5 8.625 14.2833 8.79167 14.1083L15.6333 6.86663C16.6667 5.76663 17.0417 4.74996 15.5333 3.33329C14.8667 2.69163 14.2917 2.42496 13.775 2.42496Z" fill="#EFEFEF"/>
<path d="M14.95 9.12504C14.9333 9.12504 14.9083 9.12504 14.8917 9.12504C12.2917 8.8667 10.2 6.8917 9.8 4.30837C9.75 3.9667 9.98334 3.65004 10.325 3.5917C10.6667 3.5417 10.9833 3.77504 11.0417 4.1167C11.3583 6.13337 12.9917 7.68337 15.025 7.88337C15.3667 7.9167 15.6167 8.22504 15.5833 8.5667C15.5417 8.88337 15.2667 9.12504 14.95 9.12504Z" fill="#EFEFEF"/>
</svg>
