<svg width="21" height="21" viewBox="0 0 21 21" fill="none" xmlns="http://www.w3.org/2000/svg">
<path d="M5.11667 16.7666C4.60834 16.7666 4.13334 16.5916 3.79167 16.2666C3.35834 15.8583 3.15 15.2416 3.225 14.575L3.53334 11.875C3.59167 11.3666 3.9 10.6916 4.25834 10.325L11.1 3.08329C12.8083 1.27496 14.5917 1.22496 16.4 2.93329C18.2083 4.64163 18.2583 6.42496 16.55 8.23329L9.70834 15.475C9.35834 15.85 8.70834 16.2 8.2 16.2833L5.51667 16.7416C5.375 16.75 5.25 16.7666 5.11667 16.7666ZM13.775 2.92496C13.1333 2.92496 12.575 3.32496 12.0083 3.92496L5.16667 11.175C5 11.35 4.80834 11.7666 4.775 12.0083L4.46667 14.7083C4.43334 14.9833 4.5 15.2083 4.65 15.35C4.8 15.4916 5.025 15.5416 5.3 15.5L7.98334 15.0416C8.225 15 8.625 14.7833 8.79167 14.6083L15.6333 7.36663C16.6667 6.26663 17.0417 5.24996 15.5333 3.83329C14.8667 3.19163 14.2917 2.92496 13.775 2.92496Z" fill="white"/>
<path d="M14.95 9.62504C14.9333 9.62504 14.9083 9.62504 14.8917 9.62504C12.2917 9.3667 10.2 7.3917 9.8 4.80837C9.75 4.4667 9.98334 4.15004 10.325 4.0917C10.6667 4.0417 10.9833 4.27504 11.0417 4.6167C11.3583 6.63337 12.9917 8.18337 15.025 8.38337C15.3667 8.4167 15.6167 8.72504 15.5833 9.0667C15.5417 9.38337 15.2667 9.62504 14.95 9.62504Z" fill="white"/>
<path d="M18 19.4583H3C2.65833 19.4583 2.375 19.1749 2.375 18.8333C2.375 18.4916 2.65833 18.2083 3 18.2083H18C18.3417 18.2083 18.625 18.4916 18.625 18.8333C18.625 19.1749 18.3417 19.4583 18 19.4583Z" fill="white"/>
</svg>
