<svg width="24" height="24" viewBox="0 0 24 24" fill="none" xmlns="http://www.w3.org/2000/svg">
<g clip-path="url(#clip0_4806_6942)">
<path d="M24 9.37934H0V4.55178C0 4.32327 0.185297 4.13797 0.413812 4.13797H23.5862C23.8147 4.13797 24 4.32327 24 4.55178L24 9.37934Z" fill="#73AF00"/>
<path d="M23.5861 19.8621H0.413812C0.185297 19.8621 0 19.6768 0 19.4483V14.6208H24V19.4483C24 19.6768 23.8147 19.8621 23.5861 19.8621Z" fill="#FF4B55"/>
<path d="M24 9.37909H0V14.6202H24V9.37909Z" fill="#F5F5F5"/>
<path d="M0.0651093 9.10218H0.0687186C0.104672 9.10218 0.133828 9.07307 0.133828 9.03707V8.89607C0.133828 8.86012 0.162937 8.83096 0.198937 8.83096H0.472077C0.50803 8.83096 0.537187 8.86007 0.537187 8.89607V9.03707C0.537187 9.07302 0.566296 9.10218 0.602296 9.10218H1.14145C1.1774 9.10218 1.20656 9.07307 1.20656 9.03707V8.75873C1.20656 8.72277 1.17745 8.69362 1.14145 8.69362H0.870045C0.834092 8.69362 0.804936 8.72273 0.804936 8.75873V8.76585C0.804936 8.8018 0.834045 8.83096 0.870045 8.83096H1.00762C1.04358 8.83096 1.07273 8.86007 1.07273 8.89607V8.90315C1.07273 8.9391 1.04362 8.96826 1.00762 8.96826H0.736124C0.700171 8.96826 0.671014 8.93915 0.671014 8.90315V8.75873C0.671014 8.72277 0.641905 8.69362 0.605905 8.69362H0.0651093C0.0291562 8.69362 0 8.72273 0 8.75873V9.03707C0 9.07297 0.0291093 9.10218 0.0651093 9.10218ZM0.334546 9.10218H0.338249C0.374202 9.10218 0.403359 9.07307 0.403359 9.03707V9.03337C0.403359 8.99741 0.374249 8.96826 0.338249 8.96826H0.334546C0.298593 8.96826 0.269437 8.99737 0.269437 9.03337V9.03707C0.269437 9.07297 0.298593 9.10218 0.334546 9.10218ZM0.0651093 8.55632H1.67868C1.71464 8.55632 1.74379 8.52721 1.74379 8.49121V8.48409C1.74379 8.44813 1.71468 8.41898 1.67868 8.41898H0.0651093C0.0291562 8.41898 0 8.44809 0 8.48409V8.49121C0 8.52721 0.0291093 8.55632 0.0651093 8.55632ZM1.67864 9.10218H1.40723C1.37128 9.10218 1.34212 9.07307 1.34212 9.03707V8.75873C1.34212 8.72277 1.37123 8.69362 1.40723 8.69362H1.81261C1.84856 8.69362 1.87772 8.66451 1.87772 8.62851V8.48409C1.87772 8.44813 1.90682 8.41898 1.94282 8.41898H1.94643C1.98239 8.41898 2.01154 8.44809 2.01154 8.48409V8.90315C2.01154 8.9391 2.04065 8.96826 2.07665 8.96826H2.08036C2.11631 8.96826 2.14546 8.93915 2.14546 8.90315V8.48409C2.14546 8.44813 2.17457 8.41898 2.21057 8.41898H2.21418C2.25014 8.41898 2.27929 8.44809 2.27929 8.48409V8.90315C2.27929 8.9391 2.3084 8.96826 2.3444 8.96826H2.34979C2.38575 8.96826 2.4149 8.93915 2.4149 8.90315V8.48409C2.4149 8.44813 2.44401 8.41898 2.48001 8.41898H2.48198C2.51793 8.41898 2.54709 8.44809 2.54709 8.48409V9.03707C2.54709 9.07302 2.51798 9.10218 2.48198 9.10218H1.94282C1.90687 9.10218 1.87772 9.07307 1.87772 9.03707V8.89607C1.87772 8.86012 1.84861 8.83096 1.81261 8.83096H1.5412C1.50525 8.83096 1.47609 8.86007 1.47609 8.89607V8.90315C1.47609 8.9391 1.5052 8.96826 1.5412 8.96826H1.67868C1.71464 8.96826 1.74379 8.99737 1.74379 9.03337V9.03707C1.74379 9.07297 1.71459 9.10218 1.67864 9.10218Z" fill="#F5F5F5"/>
<path d="M2.74773 9.10196H2.75312C2.78907 9.10196 2.81823 9.07286 2.81823 9.03686V8.89586C2.81823 8.8599 2.84734 8.83075 2.88334 8.83075H3.15305C3.18901 8.83075 3.21816 8.85986 3.21816 8.89586V9.03686C3.21816 9.07281 3.24727 9.10196 3.28327 9.10196H3.82243C3.85838 9.10196 3.88754 9.07286 3.88754 9.03686V8.75851C3.88754 8.72256 3.85843 8.6934 3.82243 8.6934H3.55102C3.51507 8.6934 3.48591 8.72251 3.48591 8.75851V8.76564C3.48591 8.80159 3.51502 8.83075 3.55102 8.83075H3.6886C3.72455 8.83075 3.75371 8.85986 3.75371 8.89586V8.90293C3.75371 8.93889 3.7246 8.96804 3.6886 8.96804H3.41719C3.38124 8.96804 3.35208 8.93893 3.35208 8.90293V8.75851C3.35208 8.72256 3.32298 8.6934 3.28698 8.6934H2.74773C2.71177 8.6934 2.68262 8.72251 2.68262 8.75851V9.03686C2.68266 9.07276 2.71182 9.10196 2.74773 9.10196ZM3.01552 9.10196H3.01913C3.05509 9.10196 3.08424 9.07286 3.08424 9.03686V9.03315C3.08424 8.9972 3.05513 8.96804 3.01913 8.96804H3.01552C2.97957 8.96804 2.95041 8.99715 2.95041 9.03315V9.03686C2.95046 9.07276 2.97957 9.10196 3.01552 9.10196ZM2.74773 8.55611H4.35966C4.39561 8.55611 4.42477 8.527 4.42477 8.491V8.48387C4.42477 8.44792 4.39566 8.41876 4.35966 8.41876H2.74773C2.71177 8.41876 2.68262 8.44787 2.68262 8.48387V8.491C2.68266 8.527 2.71182 8.55611 2.74773 8.55611ZM4.35966 9.10196H4.08652C4.05057 9.10196 4.02141 9.07286 4.02141 9.03686V8.75851C4.02141 8.72256 4.05052 8.6934 4.08652 8.6934H4.49189C4.52785 8.6934 4.557 8.66429 4.557 8.62829V8.48387C4.557 8.44792 4.58611 8.41876 4.62211 8.41876H4.6275C4.66346 8.41876 4.69261 8.44787 4.69261 8.48387V8.90293C4.69261 8.93889 4.72172 8.96804 4.75772 8.96804H4.76311C4.79907 8.96804 4.82822 8.93893 4.82822 8.90293V8.48387C4.82822 8.44792 4.85733 8.41876 4.89333 8.41876H4.8953C4.93125 8.41876 4.96041 8.44787 4.96041 8.48387V8.90293C4.96041 8.93889 4.98952 8.96804 5.02552 8.96804H5.03091C5.06686 8.96804 5.09602 8.93893 5.09602 8.90293V8.48387C5.09602 8.44792 5.12513 8.41876 5.16113 8.41876H5.16474C5.20069 8.41876 5.22985 8.44787 5.22985 8.48387V9.03686C5.22985 9.07281 5.20074 9.10196 5.16474 9.10196H4.62221C4.58625 9.10196 4.5571 9.07286 4.5571 9.03686V8.89586C4.5571 8.8599 4.52799 8.83075 4.49199 8.83075H4.22227C4.18632 8.83075 4.15716 8.85986 4.15716 8.89586V8.90293C4.15716 8.93889 4.18627 8.96804 4.22227 8.96804H4.35985C4.3958 8.96804 4.42496 8.99715 4.42496 9.03315V9.03686C4.42472 9.07276 4.39561 9.10196 4.35966 9.10196Z" fill="#F5F5F5"/>
<path d="M5.42937 9.10196H5.43298C5.46893 9.10196 5.49809 9.07286 5.49809 9.03686V8.89586C5.49809 8.8599 5.52719 8.83075 5.56319 8.83075H5.83469C5.87065 8.83075 5.8998 8.85986 5.8998 8.89586V9.03686C5.8998 9.07281 5.92891 9.10196 5.96491 9.10196H6.50576C6.54171 9.10196 6.57086 9.07286 6.57086 9.03686V8.75851C6.57086 8.72256 6.54176 8.6934 6.50576 8.6934H6.23435C6.1984 8.6934 6.16924 8.72251 6.16924 8.75851V8.76564C6.16924 8.80159 6.19835 8.83075 6.23435 8.83075H6.37193C6.40788 8.83075 6.43704 8.85986 6.43704 8.89586V8.90293C6.43704 8.93889 6.40793 8.96804 6.37193 8.96804H6.09879C6.06283 8.96804 6.03368 8.93893 6.03368 8.90293V8.75851C6.03368 8.72256 6.00457 8.6934 5.96857 8.6934H5.42941C5.39346 8.6934 5.3643 8.72251 5.3643 8.75851V9.03686C5.36421 9.07276 5.39341 9.10196 5.42937 9.10196ZM5.69712 9.10196H5.70073C5.73668 9.10196 5.76583 9.07286 5.76583 9.03686V9.03315C5.76583 8.9972 5.73673 8.96804 5.70073 8.96804H5.69712C5.66116 8.96804 5.63201 8.99715 5.63201 9.03315V9.03686C5.63201 9.07276 5.66116 9.10196 5.69712 9.10196ZM5.42937 8.55611H7.04299C7.07894 8.55611 7.1081 8.527 7.1081 8.491V8.48387C7.1081 8.44792 7.07899 8.41876 7.04299 8.41876H5.42937C5.39341 8.41876 5.36426 8.44787 5.36426 8.48387V8.491C5.36421 8.527 5.39341 8.55611 5.42937 8.55611ZM7.04299 9.10196H6.76985C6.7339 9.10196 6.70474 9.07286 6.70474 9.03686V8.75851C6.70474 8.72256 6.73385 8.6934 6.76985 8.6934H7.17513C7.21108 8.6934 7.24024 8.66429 7.24024 8.62829V8.48387C7.24024 8.44792 7.26935 8.41876 7.30535 8.41876H7.30905C7.345 8.41876 7.37416 8.44787 7.37416 8.48387V8.90293C7.37416 8.93889 7.40327 8.96804 7.43927 8.96804H7.44466C7.48061 8.96804 7.50977 8.93893 7.50977 8.90293V8.48387C7.50977 8.44792 7.53888 8.41876 7.57488 8.41876H7.58027C7.61622 8.41876 7.64538 8.44787 7.64538 8.48387V8.90293C7.64538 8.93889 7.67449 8.96804 7.71049 8.96804H7.71246C7.74841 8.96804 7.77757 8.93893 7.77757 8.90293V8.48387C7.77757 8.44792 7.80667 8.41876 7.84267 8.41876H7.84628C7.88224 8.41876 7.91139 8.44787 7.91139 8.48387V9.03686C7.91139 9.07281 7.88228 9.10196 7.84628 9.10196H7.30535C7.26939 9.10196 7.24024 9.07286 7.24024 9.03686V8.89586C7.24024 8.8599 7.21113 8.83075 7.17513 8.83075H6.90372C6.86777 8.83075 6.83861 8.85986 6.83861 8.89586V8.90293C6.83861 8.93889 6.86772 8.96804 6.90372 8.96804H7.04308C7.07904 8.96804 7.10819 8.99715 7.10819 9.03315V9.03686C7.1081 9.07276 7.07894 9.10196 7.04299 9.10196Z" fill="#F5F5F5"/>
<path d="M8.11003 9.10196H8.11364C8.14959 9.10196 8.17875 9.07286 8.17875 9.03686V8.89586C8.17875 8.8599 8.20786 8.83075 8.24386 8.83075H8.51526C8.55122 8.83075 8.58037 8.85986 8.58037 8.89586V9.03686C8.58037 9.07281 8.60948 9.10196 8.64548 9.10196H9.18642C9.22237 9.10196 9.25153 9.07286 9.25153 9.03686V8.75851C9.25153 8.72256 9.22242 8.6934 9.18642 8.6934H8.91328C8.87733 8.6934 8.84817 8.72251 8.84817 8.75851V8.76564C8.84817 8.80159 8.87728 8.83075 8.91328 8.83075H9.05086C9.08681 8.83075 9.11597 8.85986 9.11597 8.89586V8.90293C9.11597 8.93889 9.08686 8.96804 9.05086 8.96804H8.77945C8.7435 8.96804 8.71434 8.93893 8.71434 8.90293V8.75851C8.71434 8.72256 8.68523 8.6934 8.64923 8.6934H8.11008C8.07412 8.6934 8.04497 8.72251 8.04497 8.75851V9.03686C8.04497 9.07276 8.07413 9.10196 8.11003 9.10196ZM8.37783 9.10196H8.38144C8.41739 9.10196 8.44655 9.07286 8.44655 9.03686V9.03315C8.44655 8.9972 8.41744 8.96804 8.38144 8.96804H8.37783C8.34187 8.96804 8.31272 8.99715 8.31272 9.03315V9.03686C8.31276 9.07276 8.34187 9.10196 8.37783 9.10196ZM8.11003 8.55611H9.72197C9.75792 8.55611 9.78707 8.527 9.78707 8.491V8.48387C9.78707 8.44792 9.75797 8.41876 9.72197 8.41876H8.11003C8.07408 8.41876 8.04492 8.44787 8.04492 8.48387V8.491C8.04497 8.527 8.07413 8.55611 8.11003 8.55611ZM9.72197 9.10196H9.44883C9.41287 9.10196 9.38372 9.07286 9.38372 9.03686V8.75851C9.38372 8.72256 9.41283 8.6934 9.44883 8.6934H9.85762C9.89357 8.6934 9.92273 8.66429 9.92273 8.62829V8.48387C9.92273 8.44792 9.95184 8.41876 9.98784 8.41876H9.99145C10.0274 8.41876 10.0566 8.44787 10.0566 8.48387V8.90293C10.0566 8.93889 10.0857 8.96804 10.1217 8.96804H10.1236C10.1596 8.96804 10.1887 8.93893 10.1887 8.90293V8.48387C10.1887 8.44792 10.2179 8.41876 10.2539 8.41876H10.2592C10.2952 8.41876 10.3244 8.44787 10.3244 8.48387V8.90293C10.3244 8.93889 10.3535 8.96804 10.3895 8.96804H10.3932C10.4291 8.96804 10.4583 8.93893 10.4583 8.90293V8.48387C10.4583 8.44792 10.4874 8.41876 10.5234 8.41876H10.527C10.5629 8.41876 10.5921 8.44787 10.5921 8.48387V9.03686C10.5921 9.07281 10.563 9.10196 10.527 9.10196H9.98761C9.95165 9.10196 9.9225 9.07286 9.9225 9.03686V8.89586C9.9225 8.8599 9.89339 8.83075 9.85739 8.83075H9.58425C9.54829 8.83075 9.51914 8.85986 9.51914 8.89586V8.90293C9.51914 8.93889 9.54825 8.96804 9.58425 8.96804H9.72182C9.75778 8.96804 9.78693 8.99715 9.78693 9.03315V9.03686C9.78703 9.07276 9.75792 9.10196 9.72197 9.10196Z" fill="#F5F5F5"/>
<path d="M10.7907 9.10196H10.7944C10.8304 9.10196 10.8595 9.07286 10.8595 9.03686V8.89586C10.8595 8.8599 10.8886 8.83075 10.9246 8.83075H11.196C11.232 8.83075 11.2611 8.85986 11.2611 8.89586V9.03686C11.2611 9.07281 11.2902 9.10196 11.3262 9.10196H11.8672C11.9031 9.10196 11.9323 9.07286 11.9323 9.03686V8.75851C11.9323 8.72256 11.9032 8.6934 11.8672 8.6934H11.594C11.5581 8.6934 11.5289 8.72251 11.5289 8.75851V8.76564C11.5289 8.80159 11.558 8.83075 11.594 8.83075H11.7333C11.7692 8.83075 11.7984 8.85986 11.7984 8.89586V8.90293C11.7984 8.93889 11.7693 8.96804 11.7333 8.96804H11.4619C11.4259 8.96804 11.3967 8.93893 11.3967 8.90293V8.75851C11.3967 8.72256 11.3676 8.6934 11.3316 8.6934H10.7907C10.7547 8.6934 10.7256 8.72251 10.7256 8.75851V9.03686C10.7256 9.07276 10.7547 9.10196 10.7907 9.10196ZM11.0602 9.10196H11.0622C11.0981 9.10196 11.1273 9.07286 11.1273 9.03686V9.03315C11.1273 8.9972 11.0982 8.96804 11.0622 8.96804H11.0602C11.0243 8.96804 10.9951 8.99715 10.9951 9.03315V9.03686C10.9951 9.07276 11.0243 9.10196 11.0602 9.10196ZM10.7907 8.55611H12.4044C12.4403 8.55611 12.4695 8.527 12.4695 8.491V8.48387C12.4695 8.44792 12.4404 8.41876 12.4044 8.41876H10.7907C10.7547 8.41876 10.7256 8.44787 10.7256 8.48387V8.491C10.7256 8.527 10.7547 8.55611 10.7907 8.55611ZM12.4044 9.10196H12.1313C12.0953 9.10196 12.0662 9.07286 12.0662 9.03686V8.75851C12.0662 8.72256 12.0953 8.6934 12.1313 8.6934H12.5383C12.5743 8.6934 12.6034 8.66429 12.6034 8.62829V8.48387C12.6034 8.44792 12.6326 8.41876 12.6686 8.41876H12.6722C12.7081 8.41876 12.7373 8.44787 12.7373 8.48387V8.90293C12.7373 8.93889 12.7664 8.96804 12.8024 8.96804H12.8061C12.842 8.96804 12.8712 8.93893 12.8712 8.90293V8.48387C12.8712 8.44792 12.9003 8.41876 12.9363 8.41876H12.9399C12.9759 8.41876 13.005 8.44787 13.005 8.48387V8.90293C13.005 8.93889 13.0341 8.96804 13.0701 8.96804H13.0737C13.1097 8.96804 13.1388 8.93893 13.1388 8.90293V8.48387C13.1388 8.44792 13.168 8.41876 13.204 8.41876H13.2077C13.2436 8.41876 13.2728 8.44787 13.2728 8.48387V9.03686C13.2728 9.07281 13.2437 9.10196 13.2077 9.10196H12.6685C12.6326 9.10196 12.6034 9.07286 12.6034 9.03686V8.89586C12.6034 8.8599 12.5743 8.83075 12.5383 8.83075H12.2651C12.2292 8.83075 12.2 8.85986 12.2 8.89586V8.90293C12.2 8.93889 12.2291 8.96804 12.2651 8.96804H12.4044C12.4403 8.96804 12.4695 8.99715 12.4695 9.03315V9.03686C12.4695 9.07276 12.4404 9.10196 12.4044 9.10196Z" fill="#F5F5F5"/>
<path d="M13.4723 9.10196H13.476C13.512 9.10196 13.5411 9.07286 13.5411 9.03686V8.89586C13.5411 8.8599 13.5703 8.83075 13.6063 8.83075H13.8777C13.9136 8.83075 13.9428 8.85986 13.9428 8.89586V9.03686C13.9428 9.07281 13.9719 9.10196 14.0079 9.10196H14.5488C14.5848 9.10196 14.6139 9.07286 14.6139 9.03686V8.75851C14.6139 8.72256 14.5848 8.6934 14.5488 8.6934H14.2773C14.2414 8.6934 14.2122 8.72251 14.2122 8.75851V8.76564C14.2122 8.80159 14.2413 8.83075 14.2773 8.83075H14.4132C14.4492 8.83075 14.4783 8.85986 14.4783 8.89586V8.90293C14.4783 8.93889 14.4492 8.96804 14.4132 8.96804H14.1435C14.1075 8.96804 14.0784 8.93893 14.0784 8.90293V8.75851C14.0784 8.72256 14.0493 8.6934 14.0133 8.6934H13.4723C13.4364 8.6934 13.4072 8.72251 13.4072 8.75851V9.03686C13.4072 9.07276 13.4364 9.10196 13.4723 9.10196ZM13.7418 9.10196H13.7438C13.7797 9.10196 13.8089 9.07286 13.8089 9.03686V9.03315C13.8089 8.9972 13.7798 8.96804 13.7438 8.96804H13.7418C13.7059 8.96804 13.6767 8.99715 13.6767 9.03315V9.03686C13.6768 9.07276 13.7059 9.10196 13.7418 9.10196ZM13.4723 8.55611H15.086C15.1219 8.55611 15.1511 8.527 15.1511 8.491V8.48387C15.1511 8.44792 15.122 8.41876 15.086 8.41876H13.4723C13.4364 8.41876 13.4072 8.44787 13.4072 8.48387V8.491C13.4072 8.527 13.4364 8.55611 13.4723 8.55611ZM15.086 9.10196H14.8146C14.7786 9.10196 14.7495 9.07286 14.7495 9.03686V8.75851C14.7495 8.72256 14.7786 8.6934 14.8146 8.6934H15.2199C15.2558 8.6934 15.285 8.66429 15.285 8.62829V8.48387C15.285 8.44792 15.3141 8.41876 15.3501 8.41876H15.3538C15.3898 8.41876 15.4189 8.44787 15.4189 8.48387V8.90293C15.4189 8.93889 15.448 8.96804 15.484 8.96804H15.4876C15.5236 8.96804 15.5527 8.93893 15.5527 8.90293V8.48387C15.5527 8.44792 15.5818 8.41876 15.6178 8.41876H15.6216C15.6575 8.41876 15.6867 8.44787 15.6867 8.48387V8.90293C15.6867 8.93889 15.7158 8.96804 15.7518 8.96804H15.7554C15.7913 8.96804 15.8205 8.93893 15.8205 8.90293V8.48387C15.8205 8.44792 15.8496 8.41876 15.8856 8.41876H15.8893C15.9253 8.41876 15.9544 8.44787 15.9544 8.48387V9.03686C15.9544 9.07281 15.9253 9.10196 15.8893 9.10196H15.35C15.3141 9.10196 15.2849 9.07286 15.2849 9.03686V8.89586C15.2849 8.8599 15.2558 8.83075 15.2198 8.83075H14.9467C14.9107 8.83075 14.8816 8.85986 14.8816 8.89586V8.90293C14.8816 8.93889 14.9107 8.96804 14.9467 8.96804H15.0859C15.1219 8.96804 15.151 8.99715 15.151 9.03315V9.03686C15.1511 9.07276 15.1219 9.10196 15.086 9.10196Z" fill="#F5F5F5"/>
<path d="M16.153 9.10196H16.1567C16.1927 9.10196 16.2218 9.07286 16.2218 9.03686V8.89586C16.2218 8.8599 16.2509 8.83075 16.2869 8.83075H16.56C16.596 8.83075 16.6251 8.85986 16.6251 8.89586V9.03686C16.6251 9.07281 16.6542 9.10196 16.6902 9.10196H17.2295C17.2655 9.10196 17.2946 9.07286 17.2946 9.03686V8.75851C17.2946 8.72256 17.2655 8.6934 17.2295 8.6934H16.958C16.9221 8.6934 16.8929 8.72251 16.8929 8.75851V8.76564C16.8929 8.80159 16.922 8.83075 16.958 8.83075H17.0974C17.1333 8.83075 17.1625 8.85986 17.1625 8.89586V8.90293C17.1625 8.93889 17.1334 8.96804 17.0974 8.96804H16.8225C16.7865 8.96804 16.7574 8.93893 16.7574 8.90293V8.75851C16.7574 8.72256 16.7282 8.6934 16.6922 8.6934H16.1531C16.1171 8.6934 16.088 8.72251 16.088 8.75851V9.03686C16.0879 9.07276 16.117 9.10196 16.153 9.10196ZM16.4208 9.10196H16.4262C16.4621 9.10196 16.4913 9.07286 16.4913 9.03686V9.03315C16.4913 8.9972 16.4622 8.96804 16.4262 8.96804H16.4208C16.3848 8.96804 16.3557 8.99715 16.3557 9.03315V9.03686C16.3557 9.07276 16.3848 9.10196 16.4208 9.10196ZM16.153 8.55611H17.7666C17.8026 8.55611 17.8317 8.527 17.8317 8.491V8.48387C17.8317 8.44792 17.8026 8.41876 17.7666 8.41876H16.153C16.117 8.41876 16.0879 8.44787 16.0879 8.48387V8.491C16.0879 8.527 16.117 8.55611 16.153 8.55611ZM17.7667 9.10196H17.4953C17.4594 9.10196 17.4302 9.07286 17.4302 9.03686V8.75851C17.4302 8.72256 17.4593 8.6934 17.4953 8.6934H17.9006C17.9365 8.6934 17.9657 8.66429 17.9657 8.62829V8.48387C17.9657 8.44792 17.9948 8.41876 18.0308 8.41876H18.0345C18.0705 8.41876 18.0996 8.44787 18.0996 8.48387V8.90293C18.0996 8.93889 18.1287 8.96804 18.1647 8.96804H18.1683C18.2043 8.96804 18.2334 8.93893 18.2334 8.90293V8.48387C18.2334 8.44792 18.2626 8.41876 18.2986 8.41876H18.3023C18.3382 8.41876 18.3674 8.44787 18.3674 8.48387V8.90293C18.3674 8.93889 18.3965 8.96804 18.4325 8.96804H18.4379C18.4738 8.96804 18.503 8.93893 18.503 8.90293V8.48387C18.503 8.44792 18.5321 8.41876 18.5681 8.41876H18.57C18.6059 8.41876 18.6351 8.44787 18.6351 8.48387V9.03686C18.6351 9.07281 18.606 9.10196 18.57 9.10196H18.0308C17.9949 9.10196 17.9657 9.07286 17.9657 9.03686V8.89586C17.9657 8.8599 17.9366 8.83075 17.9006 8.83075H17.6309C17.5949 8.83075 17.5658 8.85986 17.5658 8.89586V8.90293C17.5658 8.93889 17.5949 8.96804 17.6309 8.96804H17.7668C17.8027 8.96804 17.8319 8.99715 17.8319 9.03315V9.03686C17.8318 9.07276 17.8027 9.10196 17.7667 9.10196Z" fill="#F5F5F5"/>
<path d="M18.8356 9.10196H18.8376C18.8735 9.10196 18.9027 9.07286 18.9027 9.03686V8.89586C18.9027 8.8599 18.9318 8.83075 18.9678 8.83075H19.2393C19.2753 8.83075 19.3044 8.85986 19.3044 8.89586V9.03686C19.3044 9.07281 19.3335 9.10196 19.3695 9.10196H19.9104C19.9463 9.10196 19.9755 9.07286 19.9755 9.03686V8.75851C19.9755 8.72256 19.9464 8.6934 19.9104 8.6934H19.6407C19.6048 8.6934 19.5756 8.72251 19.5756 8.75851V8.76564C19.5756 8.80159 19.6047 8.83075 19.6407 8.83075H19.7782C19.8142 8.83075 19.8433 8.85986 19.8433 8.89586V8.90293C19.8433 8.93889 19.8142 8.96804 19.7782 8.96804H19.5051C19.4692 8.96804 19.44 8.93893 19.44 8.90293V8.75851C19.44 8.72256 19.4109 8.6934 19.3749 8.6934H18.8356C18.7997 8.6934 18.7705 8.72251 18.7705 8.75851V9.03686C18.7705 9.07276 18.7997 9.10196 18.8356 9.10196ZM19.1034 9.10196H19.1071C19.143 9.10196 19.1722 9.07286 19.1722 9.03686V9.03315C19.1722 8.9972 19.1431 8.96804 19.1071 8.96804H19.1034C19.0674 8.96804 19.0383 8.99715 19.0383 9.03315V9.03686C19.0383 9.07276 19.0674 9.10196 19.1034 9.10196ZM18.8356 8.55611H20.451C20.487 8.55611 20.5161 8.527 20.5161 8.491V8.48387C20.5161 8.44792 20.487 8.41876 20.451 8.41876H18.8356C18.7997 8.41876 18.7705 8.44787 18.7705 8.48387V8.491C18.7705 8.527 18.7997 8.55611 18.8356 8.55611ZM20.451 9.10196H20.1761C20.1401 9.10196 20.1109 9.07286 20.1109 9.03686V8.75851C20.1109 8.72256 20.1401 8.6934 20.1761 8.6934H20.5814C20.6174 8.6934 20.6465 8.66429 20.6465 8.62829V8.48387C20.6465 8.44792 20.6756 8.41876 20.7116 8.41876H20.717C20.753 8.41876 20.7821 8.44787 20.7821 8.48387V8.90293C20.7821 8.93889 20.8113 8.96804 20.8473 8.96804H20.8509C20.8868 8.96804 20.916 8.93893 20.916 8.90293V8.48387C20.916 8.44792 20.9451 8.41876 20.9811 8.41876H20.983C21.019 8.41876 21.0482 8.44787 21.0482 8.48387V8.90293C21.0482 8.93889 21.0773 8.96804 21.1133 8.96804H21.1187C21.1546 8.96804 21.1838 8.93893 21.1838 8.90293V8.48387C21.1838 8.44792 21.2129 8.41876 21.2489 8.41876H21.2526C21.2885 8.41876 21.3177 8.44787 21.3177 8.48387V9.03686C21.3177 9.07281 21.2886 9.10196 21.2526 9.10196H20.7116C20.6757 9.10196 20.6465 9.07286 20.6465 9.03686V8.89586C20.6465 8.8599 20.6174 8.83075 20.5814 8.83075H20.31C20.2741 8.83075 20.2449 8.85986 20.2449 8.89586V8.90293C20.2449 8.93889 20.274 8.96804 20.31 8.96804H20.451C20.487 8.96804 20.5161 8.99715 20.5161 9.03315V9.03686C20.5161 9.07276 20.4869 9.10196 20.451 9.10196Z" fill="#F5F5F5"/>
<path d="M21.5163 9.10196H21.52C21.5559 9.10196 21.5851 9.07286 21.5851 9.03686V8.89586C21.5851 8.8599 21.6142 8.83075 21.6502 8.83075H21.9216C21.9576 8.83075 21.9867 8.85986 21.9867 8.89586V9.03686C21.9867 9.07281 22.0158 9.10196 22.0518 9.10196H22.5928C22.6287 9.10196 22.6579 9.07286 22.6579 9.03686V8.75851C22.6579 8.72256 22.6288 8.6934 22.5928 8.6934H22.323C22.2871 8.6934 22.2579 8.72251 22.2579 8.75851V8.76564C22.2579 8.80159 22.287 8.83075 22.323 8.83075H22.4606C22.4966 8.83075 22.5257 8.85986 22.5257 8.89586V8.90293C22.5257 8.93889 22.4966 8.96804 22.4606 8.96804H22.1857C22.1497 8.96804 22.1206 8.93893 22.1206 8.90293V8.75851C22.1206 8.72256 22.0915 8.6934 22.0555 8.6934H21.5163C21.4804 8.6934 21.4512 8.72251 21.4512 8.75851V9.03686C21.4512 9.07276 21.4804 9.10196 21.5163 9.10196ZM21.7841 9.10196H21.7878C21.8237 9.10196 21.8529 9.07286 21.8529 9.03686V9.03315C21.8529 8.9972 21.8238 8.96804 21.7878 8.96804H21.7841C21.7481 8.96804 21.719 8.99715 21.719 9.03315V9.03686C21.719 9.07276 21.7481 9.10196 21.7841 9.10196ZM21.5163 8.55611H23.1282C23.1642 8.55611 23.1933 8.527 23.1933 8.491V8.48387C23.1933 8.44792 23.1642 8.41876 23.1282 8.41876H21.5163C21.4803 8.41876 21.4512 8.44787 21.4512 8.48387V8.491C21.4512 8.527 21.4804 8.55611 21.5163 8.55611ZM23.1282 9.10196H22.8568C22.8209 9.10196 22.7917 9.07286 22.7917 9.03686V8.75851C22.7917 8.72256 22.8208 8.6934 22.8568 8.6934H23.2656C23.3016 8.6934 23.3307 8.66429 23.3307 8.62829V8.48387C23.3307 8.44792 23.3598 8.41876 23.3958 8.41876H23.396C23.432 8.41876 23.4611 8.44787 23.4611 8.48387V8.90293C23.4611 8.93889 23.4902 8.96804 23.5262 8.96804H23.5334C23.5693 8.96804 23.5985 8.93893 23.5985 8.90293V8.48387C23.5985 8.44792 23.6276 8.41876 23.6636 8.41876H23.6638C23.6997 8.41876 23.7289 8.44787 23.7289 8.48387V8.90293C23.7289 8.93889 23.758 8.96804 23.794 8.96804H23.7977C23.8336 8.96804 23.8628 8.93893 23.8628 8.90293V8.48387C23.8628 8.44792 23.8919 8.41876 23.9279 8.41876H23.935C23.9709 8.41876 24.0001 8.44787 24.0001 8.48387V9.03686C24.0001 9.07281 23.971 9.10196 23.935 9.10196H23.3958C23.3599 9.10196 23.3307 9.07286 23.3307 9.03686V8.89586C23.3307 8.8599 23.3016 8.83075 23.2656 8.83075H22.9907C22.9548 8.83075 22.9256 8.85986 22.9256 8.89586V8.90293C22.9256 8.93889 22.9547 8.96804 22.9907 8.96804H23.1282C23.1642 8.96804 23.1933 8.99715 23.1933 9.03315V9.03686C23.1933 9.07276 23.1642 9.10196 23.1282 9.10196Z" fill="#F5F5F5"/>
<path d="M0.0651093 9.51722H1.1415C1.17745 9.51722 1.20661 9.48811 1.20661 9.45211V9.30769C1.20661 9.27174 1.1775 9.24258 1.1415 9.24258H0.0651093C0.0291562 9.24258 0 9.27169 0 9.30769V9.45211C0 9.48811 0.0291093 9.51722 0.0651093 9.51722ZM1.40728 9.51722H2.48198C2.51793 9.51722 2.54709 9.48811 2.54709 9.45211V9.30769C2.54709 9.27174 2.51798 9.24258 2.48198 9.24258H1.40728C1.37133 9.24258 1.34217 9.27169 1.34217 9.30769V9.45211C1.34217 9.48811 1.37133 9.51722 1.40728 9.51722Z" fill="#F5F5F5"/>
<path d="M2.74773 9.51722H3.82243C3.85838 9.51722 3.88754 9.48811 3.88754 9.45211V9.30769C3.88754 9.27174 3.85843 9.24258 3.82243 9.24258H2.74773C2.71177 9.24258 2.68262 9.27169 2.68262 9.30769V9.45211C2.68266 9.48811 2.71182 9.51722 2.74773 9.51722ZM4.08652 9.51722H5.16464C5.2006 9.51722 5.22975 9.48811 5.22975 9.45211V9.30769C5.22975 9.27174 5.20064 9.24258 5.16464 9.24258H4.08652C4.05057 9.24258 4.02141 9.27169 4.02141 9.30769V9.45211C4.02141 9.48811 4.05057 9.51722 4.08652 9.51722Z" fill="#F5F5F5"/>
<path d="M5.42937 9.51722H6.50576C6.54171 9.51722 6.57087 9.48811 6.57087 9.45211V9.30769C6.57087 9.27174 6.54176 9.24258 6.50576 9.24258H5.42937C5.39341 9.24258 5.36426 9.27169 5.36426 9.30769V9.45211C5.36421 9.48811 5.39341 9.51722 5.42937 9.51722ZM6.7698 9.51722H7.84619C7.88214 9.51722 7.9113 9.48811 7.9113 9.45211V9.30769C7.9113 9.27174 7.88219 9.24258 7.84619 9.24258H6.7698C6.73385 9.24258 6.70469 9.27169 6.70469 9.30769V9.45211C6.70474 9.48811 6.7339 9.51722 6.7698 9.51722Z" fill="#F5F5F5"/>
<path d="M8.11003 9.51722H9.18642C9.22237 9.51722 9.25153 9.48811 9.25153 9.45211V9.30769C9.25153 9.27174 9.22242 9.24258 9.18642 9.24258H8.11003C8.07408 9.24258 8.04492 9.27169 8.04492 9.30769V9.45211C8.04497 9.48811 8.07413 9.51722 8.11003 9.51722ZM9.44883 9.51722H10.5269C10.5629 9.51722 10.5921 9.48811 10.5921 9.45211V9.30769C10.5921 9.27174 10.5629 9.24258 10.5269 9.24258H9.44883C9.41287 9.24258 9.38372 9.27169 9.38372 9.30769V9.45211C9.38372 9.48811 9.41282 9.51722 9.44883 9.51722Z" fill="#F5F5F5"/>
<path d="M10.7907 9.51722H11.8672C11.9031 9.51722 11.9323 9.48811 11.9323 9.45211V9.30769C11.9323 9.27174 11.9032 9.24258 11.8672 9.24258H10.7907C10.7547 9.24258 10.7256 9.27169 10.7256 9.30769V9.45211C10.7256 9.48811 10.7547 9.51722 10.7907 9.51722ZM12.1312 9.51722H13.2077C13.2436 9.51722 13.2728 9.48811 13.2728 9.45211V9.30769C13.2728 9.27174 13.2437 9.24258 13.2077 9.24258H12.1312C12.0952 9.24258 12.0661 9.27169 12.0661 9.30769V9.45211C12.0661 9.48811 12.0952 9.51722 12.1312 9.51722Z" fill="#F5F5F5"/>
<path d="M13.4723 9.51722H14.5488C14.5848 9.51722 14.6139 9.48811 14.6139 9.45211V9.30769C14.6139 9.27174 14.5848 9.24258 14.5488 9.24258H13.4723C13.4364 9.24258 13.4072 9.27169 13.4072 9.30769V9.45211C13.4072 9.48811 13.4364 9.51722 13.4723 9.51722ZM14.8146 9.51722H15.8893C15.9253 9.51722 15.9544 9.48811 15.9544 9.45211V9.30769C15.9544 9.27174 15.9253 9.24258 15.8893 9.24258H14.8146C14.7786 9.24258 14.7495 9.27169 14.7495 9.30769V9.45211C14.7495 9.48811 14.7786 9.51722 14.8146 9.51722Z" fill="#F5F5F5"/>
<path d="M16.153 9.51722H17.2295C17.2654 9.51722 17.2946 9.48811 17.2946 9.45211V9.30769C17.2946 9.27174 17.2655 9.24258 17.2295 9.24258H16.153C16.117 9.24258 16.0879 9.27169 16.0879 9.30769V9.45211C16.0879 9.48811 16.117 9.51722 16.153 9.51722ZM17.4953 9.51722H18.5699C18.6058 9.51722 18.635 9.48811 18.635 9.45211V9.30769C18.635 9.27174 18.6059 9.24258 18.5699 9.24258H17.4953C17.4593 9.24258 17.4302 9.27169 17.4302 9.30769V9.45211C17.4302 9.48811 17.4593 9.51722 17.4953 9.51722Z" fill="#F5F5F5"/>
<path d="M18.8356 9.51722H19.9103C19.9463 9.51722 19.9754 9.48811 19.9754 9.45211V9.30769C19.9754 9.27174 19.9463 9.24258 19.9103 9.24258H18.8356C18.7997 9.24258 18.7705 9.27169 18.7705 9.30769V9.45211C18.7705 9.48811 18.7997 9.51722 18.8356 9.51722ZM20.1761 9.51722H21.2526C21.2885 9.51722 21.3177 9.48811 21.3177 9.45211V9.30769C21.3177 9.27174 21.2886 9.24258 21.2526 9.24258H20.1761C20.1401 9.24258 20.111 9.27169 20.111 9.30769V9.45211C20.111 9.48811 20.1401 9.51722 20.1761 9.51722Z" fill="#F5F5F5"/>
<path d="M21.5163 9.51722H22.5928C22.6287 9.51722 22.6579 9.48811 22.6579 9.45211V9.30769C22.6579 9.27174 22.6288 9.24258 22.5928 9.24258H21.5163C21.4803 9.24258 21.4512 9.27169 21.4512 9.30769V9.45211C21.4512 9.48811 21.4804 9.51722 21.5163 9.51722ZM22.8569 9.51722H23.935C23.9709 9.51722 24.0001 9.48811 24.0001 9.45211V9.30769C24.0001 9.27174 23.971 9.24258 23.935 9.24258H22.8569C22.8209 9.24258 22.7917 9.27169 22.7917 9.30769V9.45211C22.7917 9.48811 22.8209 9.51722 22.8569 9.51722Z" fill="#F5F5F5"/>
<path d="M23.9351 14.898H23.9315C23.8955 14.898 23.8664 14.9272 23.8664 14.9632V15.1041C23.8664 15.1401 23.8373 15.1693 23.8013 15.1693H23.5281C23.4922 15.1693 23.463 15.1401 23.463 15.1041V14.9632C23.463 14.9272 23.4339 14.898 23.3979 14.898H22.8588C22.8228 14.898 22.7937 14.9272 22.7937 14.9632V15.2415C22.7937 15.2775 22.8228 15.3066 22.8588 15.3066H23.1302C23.1661 15.3066 23.1953 15.2775 23.1953 15.2415V15.2344C23.1953 15.1985 23.1662 15.1693 23.1302 15.1693H22.9926C22.9566 15.1693 22.9275 15.1402 22.9275 15.1042V15.0971C22.9275 15.0612 22.9566 15.032 22.9926 15.032H23.2641C23.3 15.032 23.3292 15.0611 23.3292 15.0971V15.2415C23.3292 15.2775 23.3583 15.3066 23.3943 15.3066H23.9352C23.9711 15.3066 24.0003 15.2775 24.0003 15.2415V14.9632C24.0002 14.9272 23.9711 14.898 23.9351 14.898ZM23.6657 14.898H23.662C23.626 14.898 23.5969 14.9272 23.5969 14.9632V14.9669C23.5969 15.0028 23.626 15.032 23.662 15.032H23.6657C23.7016 15.032 23.7308 15.0029 23.7308 14.9669V14.9632C23.7308 14.9272 23.7016 14.898 23.6657 14.898ZM23.9351 15.4439H22.3215C22.2856 15.4439 22.2564 15.473 22.2564 15.509V15.5161C22.2564 15.5521 22.2855 15.5812 22.3215 15.5812H23.9351C23.9711 15.5812 24.0002 15.5521 24.0002 15.5161V15.509C24.0002 15.473 23.9711 15.4439 23.9351 15.4439ZM22.3216 14.898H22.593C22.6289 14.898 22.6581 14.9272 22.6581 14.9632V15.2415C22.6581 15.2775 22.629 15.3066 22.593 15.3066H22.1876C22.1517 15.3066 22.1225 15.3358 22.1225 15.3718V15.5162C22.1225 15.5521 22.0934 15.5813 22.0574 15.5813H22.0538C22.0178 15.5813 21.9887 15.5522 21.9887 15.5162V15.0971C21.9887 15.0612 21.9596 15.032 21.9236 15.032H21.9199C21.8839 15.032 21.8548 15.0611 21.8548 15.0971V15.5162C21.8548 15.5521 21.8256 15.5813 21.7896 15.5813H21.786C21.7501 15.5813 21.7209 15.5522 21.7209 15.5162V15.0971C21.7209 15.0612 21.6918 15.032 21.6558 15.032H21.6504C21.6145 15.032 21.5853 15.0611 21.5853 15.0971V15.5162C21.5853 15.5521 21.5562 15.5813 21.5202 15.5813H21.5182C21.4823 15.5813 21.4531 15.5522 21.4531 15.5162V14.9632C21.4531 14.9272 21.4822 14.8981 21.5182 14.8981H22.0574C22.0933 14.8981 22.1225 14.9272 22.1225 14.9632V15.1042C22.1225 15.1401 22.1516 15.1693 22.1876 15.1693H22.459C22.495 15.1693 22.5241 15.1402 22.5241 15.1042V15.0971C22.5241 15.0612 22.495 15.032 22.459 15.032H22.3215C22.2856 15.032 22.2564 15.0029 22.2564 14.9669V14.9632C22.2564 14.9272 22.2856 14.898 22.3216 14.898Z" fill="#F5F5F5"/>
<path d="M21.2526 14.898H21.2472C21.2113 14.898 21.1821 14.9272 21.1821 14.9632V15.1041C21.1821 15.1401 21.153 15.1693 21.117 15.1693H20.8473C20.8113 15.1693 20.7822 15.1401 20.7822 15.1041V14.9632C20.7822 14.9272 20.7531 14.898 20.7171 14.898H20.1779C20.142 14.898 20.1128 14.9272 20.1128 14.9632V15.2415C20.1128 15.2775 20.1419 15.3066 20.1779 15.3066H20.4493C20.4853 15.3066 20.5144 15.2775 20.5144 15.2415V15.2344C20.5144 15.1985 20.4853 15.1693 20.4493 15.1693H20.3118C20.2758 15.1693 20.2466 15.1402 20.2466 15.1042V15.0971C20.2466 15.0612 20.2758 15.032 20.3118 15.032H20.5833C20.6192 15.032 20.6484 15.0611 20.6484 15.0971V15.2415C20.6484 15.2775 20.6775 15.3066 20.7135 15.3066H21.2526C21.2886 15.3066 21.3177 15.2775 21.3177 15.2415V14.9632C21.3177 14.9272 21.2885 14.898 21.2526 14.898ZM20.9848 14.898H20.9812C20.9453 14.898 20.9161 14.9272 20.9161 14.9632V14.9669C20.9161 15.0028 20.9452 15.032 20.9812 15.032H20.9848C21.0208 15.032 21.0499 15.0029 21.0499 14.9669V14.9632C21.0499 14.9272 21.0208 14.898 20.9848 14.898ZM21.2526 15.4439H19.6407C19.6047 15.4439 19.5756 15.473 19.5756 15.509V15.5161C19.5756 15.5521 19.6047 15.5812 19.6407 15.5812H21.2526C21.2886 15.5812 21.3177 15.5521 21.3177 15.5161V15.509C21.3177 15.473 21.2885 15.4439 21.2526 15.4439ZM19.6407 14.898H19.9138C19.9498 14.898 19.9789 14.9272 19.9789 14.9632V15.2415C19.9789 15.2775 19.9498 15.3066 19.9138 15.3066H19.5085C19.4725 15.3066 19.4434 15.3358 19.4434 15.3718V15.5162C19.4434 15.5521 19.4142 15.5813 19.3782 15.5813H19.3729C19.3369 15.5813 19.3077 15.5522 19.3077 15.5162V15.0971C19.3077 15.0612 19.2786 15.032 19.2426 15.032H19.2372C19.2013 15.032 19.1721 15.0611 19.1721 15.0971V15.5162C19.1721 15.5521 19.143 15.5813 19.107 15.5813H19.1051C19.0691 15.5813 19.0399 15.5522 19.0399 15.5162V15.0971C19.0399 15.0612 19.0108 15.032 18.9748 15.032H18.9694C18.9335 15.032 18.9043 15.0611 18.9043 15.0971V15.5162C18.9043 15.5521 18.8752 15.5813 18.8392 15.5813H18.8356C18.7997 15.5813 18.7705 15.5522 18.7705 15.5162V14.9632C18.7705 14.9272 18.7996 14.8981 18.8356 14.8981H19.3782C19.4141 14.8981 19.4433 14.9272 19.4433 14.9632V15.1042C19.4433 15.1401 19.4724 15.1693 19.5084 15.1693H19.7781C19.8141 15.1693 19.8432 15.1402 19.8432 15.1042V15.0971C19.8432 15.0612 19.8141 15.032 19.7781 15.032H19.6406C19.6046 15.032 19.5754 15.0029 19.5754 14.9669V14.9632C19.5756 14.9272 19.6047 14.898 19.6407 14.898Z" fill="#F5F5F5"/>
<path d="M18.5719 14.898H18.5683C18.5323 14.898 18.5032 14.9272 18.5032 14.9632V15.1041C18.5032 15.1401 18.474 15.1693 18.438 15.1693H18.1665C18.1306 15.1693 18.1014 15.1401 18.1014 15.1041V14.9632C18.1014 14.9272 18.0723 14.898 18.0363 14.898H17.4955C17.4595 14.898 17.4304 14.9272 17.4304 14.9632V15.2415C17.4304 15.2775 17.4595 15.3066 17.4955 15.3066H17.7669C17.8028 15.3066 17.832 15.2775 17.832 15.2415V15.2344C17.832 15.1985 17.8029 15.1693 17.7669 15.1693H17.6293C17.5934 15.1693 17.5642 15.1402 17.5642 15.1042V15.0971C17.5642 15.0612 17.5933 15.032 17.6293 15.032H17.9025C17.9384 15.032 17.9676 15.0611 17.9676 15.0971V15.2415C17.9676 15.2775 17.9967 15.3066 18.0327 15.3066H18.5718C18.6078 15.3066 18.6369 15.2775 18.6369 15.2415V14.9632C18.637 14.9272 18.6078 14.898 18.5719 14.898ZM18.3041 14.898H18.3005C18.2646 14.898 18.2354 14.9272 18.2354 14.9632V14.9669C18.2354 15.0028 18.2645 15.032 18.3005 15.032H18.3041C18.3401 15.032 18.3692 15.0029 18.3692 14.9669V14.9632C18.3692 14.9272 18.3401 14.898 18.3041 14.898ZM18.5719 15.4439H16.9582C16.9222 15.4439 16.8931 15.473 16.8931 15.509V15.5161C16.8931 15.5521 16.9222 15.5812 16.9582 15.5812H18.5719C18.6078 15.5812 18.637 15.5521 18.637 15.5161V15.509C18.637 15.473 18.6078 15.4439 18.5719 15.4439ZM16.9582 14.898H17.2314C17.2673 14.898 17.2965 14.9272 17.2965 14.9632V15.2415C17.2965 15.2775 17.2674 15.3066 17.2314 15.3066H16.8261C16.7902 15.3066 16.761 15.3358 16.761 15.3718V15.5162C16.761 15.5521 16.7319 15.5813 16.6959 15.5813H16.6922C16.6562 15.5813 16.6271 15.5522 16.6271 15.5162V15.0971C16.6271 15.0612 16.598 15.032 16.562 15.032H16.5566C16.5206 15.032 16.4915 15.0611 16.4915 15.0971V15.5162C16.4915 15.5521 16.4624 15.5813 16.4264 15.5813H16.421C16.385 15.5813 16.3559 15.5522 16.3559 15.5162V15.0971C16.3559 15.0612 16.3268 15.032 16.2908 15.032H16.2888C16.2528 15.032 16.2237 15.0611 16.2237 15.0971V15.5162C16.2237 15.5521 16.1946 15.5813 16.1586 15.5813H16.155C16.119 15.5813 16.0898 15.5522 16.0898 15.5162V14.9632C16.0898 14.9272 16.119 14.8981 16.155 14.8981H16.6959C16.7318 14.8981 16.761 14.9272 16.761 14.9632V15.1042C16.761 15.1401 16.7901 15.1693 16.8261 15.1693H17.0975C17.1335 15.1693 17.1626 15.1402 17.1626 15.1042V15.0971C17.1626 15.0612 17.1335 15.032 17.0975 15.032H16.9582C16.9222 15.032 16.893 15.0029 16.893 14.9669V14.9632C16.8931 14.9272 16.9223 14.898 16.9582 14.898Z" fill="#F5F5F5"/>
<path d="M15.8903 14.898H15.8867C15.8507 14.898 15.8216 14.9272 15.8216 14.9632V15.1041C15.8216 15.1401 15.7924 15.1693 15.7564 15.1693H15.485C15.4491 15.1693 15.4199 15.1401 15.4199 15.1041V14.9632C15.4199 14.9272 15.3908 14.898 15.3548 14.898H14.8139C14.7779 14.898 14.7488 14.9272 14.7488 14.9632V15.2415C14.7488 15.2775 14.7779 15.3066 14.8139 15.3066H15.087C15.123 15.3066 15.1521 15.2775 15.1521 15.2415V15.2344C15.1521 15.1985 15.123 15.1693 15.087 15.1693H14.9494C14.9135 15.1693 14.8843 15.1402 14.8843 15.1042V15.0971C14.8843 15.0612 14.9134 15.032 14.9494 15.032H15.2209C15.2568 15.032 15.286 15.0611 15.286 15.0971V15.2415C15.286 15.2775 15.3151 15.3066 15.3511 15.3066H15.8902C15.9262 15.3066 15.9553 15.2775 15.9553 15.2415V14.9632C15.9553 14.9272 15.9262 14.898 15.8903 14.898ZM15.6225 14.898H15.6189C15.5829 14.898 15.5538 14.9272 15.5538 14.9632V14.9669C15.5538 15.0028 15.5829 15.032 15.6189 15.032H15.6225C15.6584 15.032 15.6876 15.0029 15.6876 14.9669V14.9632C15.6875 14.9272 15.6584 14.898 15.6225 14.898ZM15.8903 15.4439H14.2783C14.2424 15.4439 14.2132 15.473 14.2132 15.509V15.5161C14.2132 15.5521 14.2423 15.5812 14.2783 15.5812H15.8903C15.9262 15.5812 15.9554 15.5521 15.9554 15.5161V15.509C15.9553 15.473 15.9262 15.4439 15.8903 15.4439ZM14.2783 14.898H14.5515C14.5874 14.898 14.6166 14.9272 14.6166 14.9632V15.2415C14.6166 15.2775 14.5875 15.3066 14.5515 15.3066H14.1427C14.1067 15.3066 14.0776 15.3358 14.0776 15.3718V15.5162C14.0776 15.5521 14.0485 15.5813 14.0125 15.5813H14.0089C13.9729 15.5813 13.9437 15.5522 13.9437 15.5162V15.0971C13.9437 15.0612 13.9146 15.032 13.8786 15.032H13.8767C13.8407 15.032 13.8116 15.0611 13.8116 15.0971V15.5162C13.8116 15.5521 13.7825 15.5813 13.7465 15.5813H13.7411C13.7051 15.5813 13.676 15.5522 13.676 15.5162V15.0971C13.676 15.0612 13.6468 15.032 13.6108 15.032H13.6071C13.5712 15.032 13.542 15.0611 13.542 15.0971V15.5162C13.542 15.5521 13.5129 15.5813 13.4769 15.5813H13.4733C13.4374 15.5813 13.4082 15.5522 13.4082 15.5162V14.9632C13.4082 14.9272 13.4373 14.8981 13.4733 14.8981H14.0125C14.0484 14.8981 14.0776 14.9272 14.0776 14.9632V15.1042C14.0776 15.1401 14.1067 15.1693 14.1427 15.1693H14.4158C14.4518 15.1693 14.4809 15.1402 14.4809 15.1042V15.0971C14.4809 15.0612 14.4518 15.032 14.4158 15.032H14.2782C14.2423 15.032 14.2131 15.0029 14.2131 14.9669V14.9632C14.2133 14.9272 14.2424 14.898 14.2783 14.898Z" fill="#F5F5F5"/>
<path d="M13.2096 14.898H13.2059C13.17 14.898 13.1408 14.9272 13.1408 14.9632V15.1041C13.1408 15.1401 13.1117 15.1693 13.0757 15.1693H12.8043C12.7683 15.1693 12.7392 15.1401 12.7392 15.1041V14.9632C12.7392 14.9272 12.7101 14.898 12.6741 14.898H12.1331C12.0972 14.898 12.068 14.9272 12.068 14.9632V15.2415C12.068 15.2775 12.0971 15.3066 12.1331 15.3066H12.4063C12.4422 15.3066 12.4714 15.2775 12.4714 15.2415V15.2344C12.4714 15.1985 12.4423 15.1693 12.4063 15.1693H12.2671C12.2311 15.1693 12.2019 15.1402 12.2019 15.1042V15.0971C12.2019 15.0612 12.2311 15.032 12.2671 15.032H12.5385C12.5744 15.032 12.6036 15.0611 12.6036 15.0971V15.2415C12.6036 15.2775 12.6327 15.3066 12.6687 15.3066H13.2096C13.2456 15.3066 13.2747 15.2775 13.2747 15.2415V14.9632C13.2747 14.9272 13.2456 14.898 13.2096 14.898ZM12.9401 14.898H12.9381C12.9022 14.898 12.873 14.9272 12.873 14.9632V14.9669C12.873 15.0028 12.9021 15.032 12.9381 15.032H12.9401C12.976 15.032 13.0052 15.0029 13.0052 14.9669V14.9632C13.0052 14.9272 12.976 14.898 12.9401 14.898ZM13.2096 15.4439H11.5959C11.56 15.4439 11.5308 15.473 11.5308 15.509V15.5161C11.5308 15.5521 11.5599 15.5812 11.5959 15.5812H13.2096C13.2456 15.5812 13.2747 15.5521 13.2747 15.5161V15.509C13.2747 15.473 13.2456 15.4439 13.2096 15.4439ZM11.5959 14.898H11.869C11.905 14.898 11.9341 14.9272 11.9341 14.9632V15.2415C11.9341 15.2775 11.905 15.3066 11.869 15.3066H11.462C11.426 15.3066 11.3969 15.3358 11.3969 15.3718V15.5162C11.3969 15.5521 11.3678 15.5813 11.3318 15.5813H11.3281C11.2922 15.5813 11.263 15.5522 11.263 15.5162V15.0971C11.263 15.0612 11.2339 15.032 11.1979 15.032H11.1942C11.1583 15.032 11.1291 15.0611 11.1291 15.0971V15.5162C11.1291 15.5521 11.1 15.5813 11.064 15.5813H11.0604C11.0244 15.5813 10.9953 15.5522 10.9953 15.5162V15.0971C10.9953 15.0612 10.9662 15.032 10.9302 15.032H10.9266C10.8906 15.032 10.8615 15.0611 10.8615 15.0971V15.5162C10.8615 15.5521 10.8324 15.5813 10.7964 15.5813H10.7926C10.7567 15.5813 10.7275 15.5522 10.7275 15.5162V14.9632C10.7275 14.9272 10.7566 14.8981 10.7926 14.8981H11.3318C11.3678 14.8981 11.3969 14.9272 11.3969 14.9632V15.1042C11.3969 15.1401 11.426 15.1693 11.462 15.1693H11.7352C11.7711 15.1693 11.8003 15.1402 11.8003 15.1042V15.0971C11.8003 15.0612 11.7712 15.032 11.7352 15.032H11.5959C11.56 15.032 11.5308 15.0029 11.5308 14.9669V14.9632C11.5308 14.9272 11.5599 14.898 11.5959 14.898Z" fill="#F5F5F5"/>
<path d="M10.5289 14.898H10.5252C10.4893 14.898 10.4601 14.9272 10.4601 14.9632V15.1041C10.4601 15.1401 10.431 15.1693 10.395 15.1693H10.1236C10.0877 15.1693 10.0585 15.1401 10.0585 15.1041V14.9632C10.0585 14.9272 10.0294 14.898 9.9934 14.898H9.45247C9.41651 14.898 9.38736 14.9272 9.38736 14.9632V15.2415C9.38736 15.2775 9.41647 15.3066 9.45247 15.3066H9.72397C9.75992 15.3066 9.78907 15.2775 9.78907 15.2415V15.2344C9.78907 15.1985 9.75997 15.1693 9.72397 15.1693H9.58807C9.55212 15.1693 9.52297 15.1402 9.52297 15.1042V15.0971C9.52297 15.0612 9.55207 15.032 9.58807 15.032H9.85779C9.89375 15.032 9.9229 15.0611 9.9229 15.0971V15.2415C9.9229 15.2775 9.95201 15.3066 9.98801 15.3066H10.5289C10.5649 15.3066 10.5941 15.2775 10.5941 15.2415V14.9632C10.5941 14.9272 10.5649 14.898 10.5289 14.898ZM10.2595 14.898H10.2575C10.2215 14.898 10.1924 14.9272 10.1924 14.9632V14.9669C10.1924 15.0028 10.2215 15.032 10.2575 15.032H10.2595C10.2954 15.032 10.3246 15.0029 10.3246 14.9669V14.9632C10.3245 14.9272 10.2954 14.898 10.2595 14.898ZM10.5289 15.4439H8.91528C8.87933 15.4439 8.85017 15.473 8.85017 15.509V15.5161C8.85017 15.5521 8.87928 15.5812 8.91528 15.5812H10.5289C10.5649 15.5812 10.594 15.5521 10.594 15.5161V15.509C10.5941 15.473 10.5649 15.4439 10.5289 15.4439ZM8.91528 14.898H9.18668C9.22264 14.898 9.25179 14.9272 9.25179 14.9632V15.2415C9.25179 15.2775 9.22268 15.3066 9.18668 15.3066H8.7814C8.74545 15.3066 8.7163 15.3358 8.7163 15.3718V15.5162C8.7163 15.5521 8.68719 15.5813 8.65119 15.5813H8.64748C8.61153 15.5813 8.58237 15.5522 8.58237 15.5162V15.0971C8.58237 15.0612 8.55326 15.032 8.51726 15.032H8.51365C8.4777 15.032 8.44855 15.0611 8.44855 15.0971V15.5162C8.44855 15.5521 8.41944 15.5813 8.38344 15.5813H8.37973C8.34378 15.5813 8.31462 15.5522 8.31462 15.5162V15.0971C8.31462 15.0612 8.28552 15.032 8.24952 15.032H8.24591C8.20995 15.032 8.1808 15.0611 8.1808 15.0971V15.5162C8.1808 15.5521 8.15169 15.5813 8.11569 15.5813H8.11198C8.07603 15.5813 8.04688 15.5522 8.04688 15.5162V14.9632C8.04688 14.9272 8.07598 14.8981 8.11198 14.8981H8.65128C8.68723 14.8981 8.71639 14.9272 8.71639 14.9632V15.1042C8.71639 15.1401 8.7455 15.1693 8.7815 15.1693H9.05459C9.09054 15.1693 9.1197 15.1402 9.1197 15.1042V15.0971C9.1197 15.0612 9.09059 15.032 9.05459 15.032H8.91537C8.87942 15.032 8.85026 15.0029 8.85026 14.9669V14.9632C8.85017 14.9272 8.87937 14.898 8.91528 14.898Z" fill="#F5F5F5"/>
<path d="M7.84736 14.898H7.84365C7.8077 14.898 7.77854 14.9272 7.77854 14.9632V15.1041C7.77854 15.1401 7.74943 15.1693 7.71343 15.1693H7.44034C7.40439 15.1693 7.37523 15.1401 7.37523 15.1041V14.9632C7.37523 14.9272 7.34612 14.898 7.31012 14.898H6.77083C6.73487 14.898 6.70572 14.9272 6.70572 14.9632V15.2415C6.70572 15.2775 6.73483 15.3066 6.77083 15.3066H7.04233C7.07828 15.3066 7.10744 15.2775 7.10744 15.2415V15.2344C7.10744 15.1985 7.07833 15.1693 7.04233 15.1693H6.90297C6.86701 15.1693 6.83786 15.1402 6.83786 15.1042V15.0971C6.83786 15.0612 6.86697 15.032 6.90297 15.032H7.17789C7.21384 15.032 7.243 15.0611 7.243 15.0971V15.2415C7.243 15.2775 7.27211 15.3066 7.30811 15.3066H7.84726C7.88321 15.3066 7.91237 15.2775 7.91237 15.2415V14.9632C7.91242 14.9272 7.88331 14.898 7.84736 14.898ZM7.57956 14.898H7.57417C7.53822 14.898 7.50906 14.9272 7.50906 14.9632V14.9669C7.50906 15.0028 7.53817 15.032 7.57417 15.032H7.57956C7.61551 15.032 7.64467 15.0029 7.64467 14.9669V14.9632C7.64467 14.9272 7.61551 14.898 7.57956 14.898ZM7.84736 15.4439H6.23373C6.19778 15.4439 6.16862 15.473 6.16862 15.509V15.5161C6.16862 15.5521 6.19773 15.5812 6.23373 15.5812H7.84736C7.88331 15.5812 7.91247 15.5521 7.91247 15.5161V15.509C7.91242 15.473 7.88331 15.4439 7.84736 15.4439ZM6.23364 14.898H6.50504C6.541 14.898 6.57015 14.9272 6.57015 14.9632V15.2415C6.57015 15.2775 6.54104 15.3066 6.50504 15.3066H6.09976C6.06381 15.3066 6.03466 15.3358 6.03466 15.3718V15.5162C6.03466 15.5521 6.00555 15.5813 5.96955 15.5813H5.96584C5.92989 15.5813 5.90073 15.5522 5.90073 15.5162V15.0971C5.90073 15.0612 5.87162 15.032 5.83562 15.032H5.83201C5.79606 15.032 5.76691 15.0611 5.76691 15.0971V15.5162C5.76691 15.5521 5.7378 15.5813 5.7018 15.5813H5.69809C5.66214 15.5813 5.63298 15.5522 5.63298 15.5162V15.0971C5.63298 15.0612 5.60387 15.032 5.56787 15.032H5.56248C5.52653 15.032 5.49737 15.0611 5.49737 15.0971V15.5162C5.49737 15.5521 5.46827 15.5813 5.43227 15.5813H5.43034C5.39439 15.5813 5.36523 15.5522 5.36523 15.5162V14.9632C5.36523 14.9272 5.39434 14.8981 5.43034 14.8981H5.9695C6.00545 14.8981 6.03461 14.9272 6.03461 14.9632V15.1042C6.03461 15.1401 6.06372 15.1693 6.09972 15.1693H6.36944C6.40539 15.1693 6.43455 15.1402 6.43455 15.1042V15.0971C6.43455 15.0612 6.40544 15.032 6.36944 15.032H6.23355C6.19759 15.032 6.16844 15.0029 6.16844 14.9669V14.9632C6.16858 14.9272 6.19769 14.898 6.23364 14.898Z" fill="#F5F5F5"/>
<path d="M5.16469 14.898H5.16272C5.12677 14.898 5.09761 14.9272 5.09761 14.9632V15.1041C5.09761 15.1401 5.0685 15.1693 5.0325 15.1693H4.761C4.72505 15.1693 4.69589 15.1401 4.69589 15.1041V14.9632C4.69589 14.9272 4.66679 14.898 4.63079 14.898H4.09004C4.05408 14.898 4.02493 14.9272 4.02493 14.9632V15.2415C4.02493 15.2775 4.05404 15.3066 4.09004 15.3066H4.35966C4.39561 15.3066 4.42477 15.2775 4.42477 15.2415V15.2344C4.42477 15.1985 4.39566 15.1693 4.35966 15.1693H4.22218C4.18622 15.1693 4.15707 15.1402 4.15707 15.1042V15.0971C4.15707 15.0612 4.18618 15.032 4.22218 15.032H4.49532C4.53127 15.032 4.56043 15.0611 4.56043 15.0971V15.2415C4.56043 15.2775 4.58954 15.3066 4.62554 15.3066H5.16483C5.20078 15.3066 5.22994 15.2775 5.22994 15.2415V14.9632C5.22985 14.9272 5.20064 14.898 5.16469 14.898ZM4.89694 14.898H4.89324C4.85728 14.898 4.82813 14.9272 4.82813 14.9632V14.9669C4.82813 15.0028 4.85724 15.032 4.89324 15.032H4.89694C4.93289 15.032 4.96205 15.0029 4.96205 14.9669V14.9632C4.96205 14.9272 4.93289 14.898 4.89694 14.898ZM5.16469 15.4439H3.54933C3.51338 15.4439 3.48423 15.473 3.48423 15.509V15.5161C3.48423 15.5521 3.51333 15.5812 3.54933 15.5812H5.16474C5.20069 15.5812 5.22985 15.5521 5.22985 15.5161V15.509C5.22985 15.473 5.20064 15.4439 5.16469 15.4439ZM3.54933 14.898H3.82426C3.86021 14.898 3.88936 14.9272 3.88936 14.9632V15.2415C3.88936 15.2775 3.86026 15.3066 3.82426 15.3066H3.41888C3.38293 15.3066 3.35377 15.3358 3.35377 15.3718V15.5162C3.35377 15.5521 3.32466 15.5813 3.28866 15.5813H3.28327C3.24732 15.5813 3.21816 15.5522 3.21816 15.5162V15.0971C3.21816 15.0612 3.18905 15.032 3.15305 15.032H3.14944C3.11349 15.032 3.08434 15.0611 3.08434 15.0971V15.5162C3.08434 15.5521 3.05523 15.5813 3.01923 15.5813H3.01726C2.9813 15.5813 2.95215 15.5522 2.95215 15.5162V15.0971C2.95215 15.0612 2.92304 15.032 2.88704 15.032H2.88165C2.84569 15.032 2.81654 15.0611 2.81654 15.0971V15.5162C2.81654 15.5521 2.78743 15.5813 2.75143 15.5813H2.74773C2.71177 15.5813 2.68262 15.5522 2.68262 15.5162V14.9632C2.68262 14.9272 2.71173 14.8981 2.74773 14.8981H3.28866C3.32462 14.8981 3.35377 14.9272 3.35377 14.9632V15.1042C3.35377 15.1401 3.38288 15.1693 3.41888 15.1693H3.69029C3.72624 15.1693 3.7554 15.1402 3.7554 15.1042V15.0971C3.7554 15.0612 3.72629 15.032 3.69029 15.032H3.54943C3.51347 15.032 3.48432 15.0029 3.48432 14.9669V14.9632C3.48418 14.9272 3.51338 14.898 3.54933 14.898Z" fill="#F5F5F5"/>
<path d="M2.48371 14.898H2.48001C2.44406 14.898 2.4149 14.9272 2.4149 14.9632V15.1041C2.4149 15.1401 2.38579 15.1693 2.34979 15.1693H2.07839C2.04243 15.1693 2.01328 15.1401 2.01328 15.1041V14.9632C2.01328 14.9272 1.98417 14.898 1.94817 14.898H1.40728C1.37133 14.898 1.34217 14.9272 1.34217 14.9632V15.2415C1.34217 15.2775 1.37128 15.3066 1.40728 15.3066H1.677C1.71295 15.3066 1.74211 15.2775 1.74211 15.2415V15.2344C1.74211 15.1985 1.713 15.1693 1.677 15.1693H1.53942C1.50347 15.1693 1.47431 15.1402 1.47431 15.1042V15.0971C1.47431 15.0612 1.50342 15.032 1.53942 15.032H1.81434C1.85029 15.032 1.87945 15.0611 1.87945 15.0971V15.2415C1.87945 15.2775 1.90856 15.3066 1.94456 15.3066H2.48371C2.51967 15.3066 2.54882 15.2775 2.54882 15.2415V14.9632C2.54882 14.9272 2.51967 14.898 2.48371 14.898ZM2.21596 14.898H2.21226C2.17631 14.898 2.14715 14.9272 2.14715 14.9632V14.9669C2.14715 15.0028 2.17626 15.032 2.21226 15.032H2.21596C2.25192 15.032 2.28107 15.0029 2.28107 14.9669V14.9632C2.28103 14.9272 2.25192 14.898 2.21596 14.898ZM2.48371 15.4439H0.871827C0.835874 15.4439 0.806717 15.473 0.806717 15.509V15.5161C0.806717 15.5521 0.835827 15.5812 0.871827 15.5812H2.48376C2.51971 15.5812 2.54887 15.5521 2.54887 15.5161V15.509C2.54882 15.473 2.51967 15.4439 2.48371 15.4439ZM0.871827 14.898H1.14323C1.17919 14.898 1.20834 14.9272 1.20834 14.9632V15.2415C1.20834 15.2775 1.17923 15.3066 1.14323 15.3066H0.73453C0.698577 15.3066 0.669421 15.3358 0.669421 15.3718V15.5162C0.669421 15.5521 0.640311 15.5813 0.604311 15.5813H0.604124C0.568171 15.5813 0.539015 15.5522 0.539015 15.5162V15.0971C0.539015 15.0612 0.509905 15.032 0.473905 15.032H0.466687C0.430734 15.032 0.401577 15.0611 0.401577 15.0971V15.5162C0.401577 15.5521 0.372468 15.5813 0.336468 15.5813H0.336328C0.300374 15.5813 0.271218 15.5522 0.271218 15.5162V15.0971C0.271218 15.0612 0.242109 15.032 0.206109 15.032H0.202359C0.166406 15.032 0.13725 15.0611 0.13725 15.0971V15.5162C0.13725 15.5521 0.10814 15.5813 0.0721405 15.5813H0.0651093C0.0291562 15.5813 0 15.5522 0 15.5162V14.9632C0 14.9272 0.0291093 14.8981 0.0651093 14.8981H0.604264C0.640218 14.8981 0.669374 14.9272 0.669374 14.9632V15.1042C0.669374 15.1401 0.698483 15.1693 0.734483 15.1693H1.00936C1.04531 15.1693 1.07447 15.1402 1.07447 15.1042V15.0971C1.07447 15.0612 1.04536 15.032 1.00936 15.032H0.871873C0.83592 15.032 0.806764 15.0029 0.806764 14.9669V14.9632C0.806717 14.9272 0.835874 14.898 0.871827 14.898Z" fill="#F5F5F5"/>
<path d="M23.9351 14.4827H22.8587C22.8228 14.4827 22.7936 14.5118 22.7936 14.5478V14.6923C22.7936 14.7282 22.8227 14.7574 22.8587 14.7574H23.9351C23.9711 14.7574 24.0002 14.7283 24.0002 14.6923V14.5478C24.0002 14.5118 23.9711 14.4827 23.9351 14.4827ZM22.5929 14.4827H21.5182C21.4823 14.4827 21.4531 14.5118 21.4531 14.5478V14.6923C21.4531 14.7282 21.4822 14.7574 21.5182 14.7574H22.5929C22.6289 14.7574 22.658 14.7283 22.658 14.6923V14.5478C22.658 14.5118 22.6289 14.4827 22.5929 14.4827Z" fill="#F5F5F5"/>
<path d="M21.2525 14.4827H20.1778C20.1419 14.4827 20.1127 14.5118 20.1127 14.5478V14.6923C20.1127 14.7282 20.1418 14.7574 20.1778 14.7574H21.2525C21.2885 14.7574 21.3176 14.7283 21.3176 14.6923V14.5478C21.3176 14.5118 21.2884 14.4827 21.2525 14.4827ZM19.9137 14.4827H18.8356C18.7997 14.4827 18.7705 14.5118 18.7705 14.5478V14.6923C18.7705 14.7282 18.7996 14.7574 18.8356 14.7574H19.9137C19.9497 14.7574 19.9788 14.7283 19.9788 14.6923V14.5478C19.9788 14.5118 19.9497 14.4827 19.9137 14.4827Z" fill="#F5F5F5"/>
<path d="M18.5718 14.4827H17.4954C17.4594 14.4827 17.4303 14.5118 17.4303 14.5478V14.6923C17.4303 14.7282 17.4594 14.7574 17.4954 14.7574H18.5718C18.6077 14.7574 18.6369 14.7283 18.6369 14.6923V14.5478C18.6369 14.5118 18.6077 14.4827 18.5718 14.4827ZM17.2313 14.4827H16.155C16.119 14.4827 16.0898 14.5118 16.0898 14.5478V14.6923C16.0898 14.7282 16.119 14.7574 16.155 14.7574H17.2313C17.2673 14.7574 17.2965 14.7283 17.2965 14.6923V14.5478C17.2965 14.5118 17.2672 14.4827 17.2313 14.4827Z" fill="#F5F5F5"/>
<path d="M15.8902 14.4827H14.8138C14.7779 14.4827 14.7487 14.5118 14.7487 14.5478V14.6923C14.7487 14.7282 14.7778 14.7574 14.8138 14.7574H15.8902C15.9262 14.7574 15.9553 14.7283 15.9553 14.6923V14.5478C15.9553 14.5118 15.9261 14.4827 15.8902 14.4827ZM14.5514 14.4827H13.4733C13.4374 14.4827 13.4082 14.5118 13.4082 14.5478V14.6923C13.4082 14.7282 13.4373 14.7574 13.4733 14.7574H14.5514C14.5874 14.7574 14.6165 14.7283 14.6165 14.6923V14.5478C14.6165 14.5118 14.5874 14.4827 14.5514 14.4827Z" fill="#F5F5F5"/>
<path d="M13.2096 14.4827H12.1331C12.0972 14.4827 12.068 14.5118 12.068 14.5478V14.6923C12.068 14.7282 12.0971 14.7574 12.1331 14.7574H13.2096C13.2456 14.7574 13.2747 14.7283 13.2747 14.6923V14.5478C13.2747 14.5118 13.2456 14.4827 13.2096 14.4827ZM11.8691 14.4827H10.7926C10.7567 14.4827 10.7275 14.5118 10.7275 14.5478V14.6923C10.7275 14.7282 10.7566 14.7574 10.7926 14.7574H11.8691C11.9051 14.7574 11.9342 14.7283 11.9342 14.6923V14.5478C11.9342 14.5118 11.9051 14.4827 11.8691 14.4827Z" fill="#F5F5F5"/>
<path d="M10.5289 14.4827H9.45247C9.41651 14.4827 9.38736 14.5118 9.38736 14.5478V14.6923C9.38736 14.7282 9.41647 14.7574 9.45247 14.7574H10.5289C10.5649 14.7574 10.5941 14.7283 10.5941 14.6923V14.5478C10.5941 14.5118 10.5649 14.4827 10.5289 14.4827ZM9.18668 14.4827H8.11198C8.07603 14.4827 8.04688 14.5118 8.04688 14.5478V14.6923C8.04688 14.7282 8.07598 14.7574 8.11198 14.7574H9.18668C9.22264 14.7574 9.25179 14.7283 9.25179 14.6923V14.5478C9.25179 14.5118 9.22264 14.4827 9.18668 14.4827Z" fill="#F5F5F5"/>
<path d="M7.84819 14.4827H6.77171C6.73576 14.4827 6.7066 14.5118 6.7066 14.5478V14.6923C6.7066 14.7282 6.73571 14.7574 6.77171 14.7574H7.84819C7.88414 14.7574 7.9133 14.7283 7.9133 14.6923V14.5478C7.91325 14.5118 7.88414 14.4827 7.84819 14.4827ZM6.50593 14.4827H5.43132C5.39537 14.4827 5.36621 14.5118 5.36621 14.5478V14.6923C5.36621 14.7282 5.39532 14.7574 5.43132 14.7574H6.50593C6.54188 14.7574 6.57104 14.7283 6.57104 14.6923V14.5478C6.57099 14.5118 6.54188 14.4827 6.50593 14.4827Z" fill="#F5F5F5"/>
<path d="M5.16469 14.4827H4.09004C4.05408 14.4827 4.02493 14.5118 4.02493 14.5478V14.6923C4.02493 14.7282 4.05404 14.7574 4.09004 14.7574H5.16474C5.20069 14.7574 5.22985 14.7283 5.22985 14.6923V14.5478C5.22985 14.5118 5.20064 14.4827 5.16469 14.4827ZM3.82421 14.4827H2.74773C2.71177 14.4827 2.68262 14.5118 2.68262 14.5478V14.6923C2.68262 14.7282 2.71173 14.7574 2.74773 14.7574H3.82421C3.86016 14.7574 3.88932 14.7283 3.88932 14.6923V14.5478C3.88932 14.5118 3.86016 14.4827 3.82421 14.4827Z" fill="#F5F5F5"/>
<path d="M2.48371 14.4827H1.40728C1.37133 14.4827 1.34217 14.5118 1.34217 14.5478V14.6923C1.34217 14.7282 1.37128 14.7574 1.40728 14.7574H2.48376C2.51971 14.7574 2.54887 14.7283 2.54887 14.6923V14.5478C2.54882 14.5118 2.51967 14.4827 2.48371 14.4827ZM1.14319 14.4827H0.0651093C0.0291093 14.4827 0 14.5118 0 14.5478V14.6923C0 14.7282 0.0291093 14.7574 0.0651093 14.7574H1.14323C1.17919 14.7574 1.20834 14.7283 1.20834 14.6923V14.5478C1.20834 14.5118 1.17919 14.4827 1.14319 14.4827Z" fill="#F5F5F5"/>
<path d="M11.6576 10.0441C11.7803 10.0769 11.9114 10.0408 12.0014 9.94917C12.1372 10.0867 12.3598 10.09 12.5006 9.95578C12.5923 9.86738 12.6299 9.73312 12.5972 9.612C12.4777 9.80517 12.2257 9.86738 12.0325 9.7462C12.0227 9.73959 12.0096 9.73308 12.0014 9.72652C11.8198 9.86072 11.5628 9.82472 11.4253 9.64472C11.4203 9.63483 11.4106 9.62175 11.404 9.612C11.3548 9.80198 11.4694 9.9983 11.6576 10.0441Z" fill="#FF4B55"/>
<path d="M12.4195 13.8682C12.8595 13.6267 13.2267 13.2461 13.428 12.7448C13.7708 11.8856 13.5549 10.9158 12.8991 10.2867C12.8765 10.2651 12.8423 10.294 12.8586 10.3207C13.5055 11.3755 13.2506 12.7616 12.2497 13.5212L12.2976 10.4571C12.2982 10.4155 12.2797 10.3759 12.2474 10.3497L12.0846 10.2181C12.0347 10.1778 11.9635 10.1781 11.9139 10.2186L11.7535 10.3497C11.7215 10.3759 11.7032 10.4152 11.7038 10.4566L11.7503 13.5228C10.7493 12.7636 10.4939 11.3762 11.1397 10.3207C11.156 10.2941 11.1218 10.2652 11.0993 10.2868C10.4447 10.9159 10.2275 11.8857 10.5702 12.7448C10.7716 13.246 11.1387 13.6266 11.5788 13.8682C11.2987 13.9642 11.0044 14.0151 10.7067 14.0066C10.6752 14.0057 10.6689 14.0499 10.6991 14.059C11.0772 14.1738 11.4662 14.1817 11.8319 14.0997L11.9755 14.3783C11.9854 14.3975 12.013 14.3976 12.023 14.3783L12.1675 14.0998C12.5332 14.1817 12.9223 14.1737 13.3008 14.0589C13.3309 14.0498 13.3246 14.0055 13.2932 14.0064C12.9951 14.0151 12.7001 13.9642 12.4195 13.8682Z" fill="#FF4B55"/>
<path d="M14.2106 11.0197C13.9854 10.599 13.6114 10.2801 13.1663 10.1239C13.1384 10.1141 13.1166 10.1509 13.1394 10.1697C14.1222 10.9793 14.3192 12.4212 13.5592 13.4651C13.5199 13.5175 13.4773 13.5732 13.4364 13.6189C14.3694 13.1181 14.7148 11.9527 14.2106 11.0197Z" fill="#FF4B55"/>
<path d="M10.4412 13.4651C9.6812 12.4212 9.87666 10.9794 10.8593 10.1698C10.8821 10.1509 10.8603 10.1142 10.8324 10.1239C10.3878 10.2802 10.0164 10.599 9.78976 11.0197C9.28238 11.9527 9.63104 13.1181 10.5656 13.6189C10.5215 13.5731 10.4789 13.5175 10.4412 13.4651Z" fill="#FF4B55"/>
</g>
<defs>
<clipPath id="clip0_4806_6942">
<rect width="24" height="24" fill="white"/>
</clipPath>
</defs>
</svg>
