<svg width="21" height="21" viewBox="0 0 21 21" fill="none" xmlns="http://www.w3.org/2000/svg">
<path d="M18 6.10839C17.9833 6.10839 17.9583 6.10839 17.9333 6.10839C13.525 5.66673 9.12499 5.50006 4.76666 5.94173L3.06666 6.10839C2.71666 6.14173 2.40832 5.89173 2.37499 5.54173C2.34166 5.19173 2.59166 4.89173 2.93332 4.85839L4.63332 4.69173C9.06666 4.24173 13.5583 4.41673 18.0583 4.85839C18.4 4.89173 18.65 5.20006 18.6167 5.54173C18.5917 5.86673 18.3167 6.10839 18 6.10839Z" fill="#EF5350"/>
<path d="M7.58332 5.26675C7.54999 5.26675 7.51665 5.26675 7.47499 5.25842C7.14165 5.20008 6.90832 4.87508 6.96665 4.54175L7.14999 3.45008C7.28332 2.65008 7.46665 1.54175 9.40832 1.54175H11.5917C13.5417 1.54175 13.725 2.69175 13.85 3.45841L14.0333 4.54175C14.0917 4.88341 13.8583 5.20842 13.525 5.25842C13.1833 5.31675 12.8583 5.08342 12.8083 4.75008L12.625 3.66675C12.5083 2.94175 12.4833 2.80008 11.6 2.80008H9.41665C8.53332 2.80008 8.51665 2.91675 8.39165 3.65841L8.19999 4.74175C8.14999 5.05008 7.88332 5.26675 7.58332 5.26675Z" fill="#EF5350"/>
<path d="M13.175 19.4584H7.825C4.91666 19.4584 4.8 17.8501 4.70833 16.5501L4.16666 8.1584C4.14166 7.81673 4.40833 7.51673 4.75 7.49173C5.1 7.47506 5.39166 7.7334 5.41666 8.07506L5.95833 16.4667C6.05 17.7334 6.08333 18.2084 7.825 18.2084H13.175C14.925 18.2084 14.9583 17.7334 15.0417 16.4667L15.5833 8.07506C15.6083 7.7334 15.9083 7.47506 16.25 7.49173C16.5917 7.51673 16.8583 7.8084 16.8333 8.1584L16.2917 16.5501C16.2 17.8501 16.0833 19.4584 13.175 19.4584Z" fill="#EF5350"/>
<path d="M11.8833 14.875H9.10834C8.76667 14.875 8.48334 14.5917 8.48334 14.25C8.48334 13.9083 8.76667 13.625 9.10834 13.625H11.8833C12.225 13.625 12.5083 13.9083 12.5083 14.25C12.5083 14.5917 12.225 14.875 11.8833 14.875Z" fill="#EF5350"/>
<path d="M12.5833 11.5417H8.41666C8.07499 11.5417 7.79166 11.2584 7.79166 10.9167C7.79166 10.5751 8.07499 10.2917 8.41666 10.2917H12.5833C12.925 10.2917 13.2083 10.5751 13.2083 10.9167C13.2083 11.2584 12.925 11.5417 12.5833 11.5417Z" fill="#EF5350"/>
</svg>
